<?xml version="1.0" encoding="UTF-8" standalone="no"?>
<svg width="1024px" height="1024px" viewBox="0 0 1024 1024" version="1.1" xmlns="http://www.w3.org/2000/svg" xmlns:xlink="http://www.w3.org/1999/xlink" xmlns:sketch="http://www.bohemiancoding.com/sketch/ns">
    <!-- Generator: Sketch 3.3.3 (12081) - http://www.bohemiancoding.com/sketch -->
    <title>On the Spot</title>
    <desc>Created with Sketch.</desc>
    <defs>
        <radialGradient cx="50%" cy="0%" fx="50%" fy="0%" r="126.36261%" id="radialGradient-1">
            <stop stop-color="#2F2F2F" offset="0%"></stop>
            <stop stop-color="#000000" offset="100%"></stop>
        </radialGradient>
    </defs>
    <g id="Page-1" stroke="none" stroke-width="1" fill="none" fill-rule="evenodd" sketch:type="MSPage">
        <g id="On-the-Spot" sketch:type="MSArtboardGroup">
            <!-- <rect id="Rectangle-4-Copy" fill="url(#radialGradient-1)" sketch:type="MSShapeGroup" x="0" y="0" width="1024" height="1024"></rect> -->
            <polygon id="Triangle-14" stroke="#FFFFFF" stroke-width="18" sketch:type="MSShapeGroup" transform="translate(512.000000, 513.000000) scale(1, -1) translate(-512.000000, -513.000000) " points="512 263 762 763 262 763 "></polygon>
            <polygon id="Triangle-14-Copy" stroke="#FFFFFF" stroke-width="4" sketch:type="MSShapeGroup" transform="translate(512.000000, 533.000000) scale(1, -1) translate(-512.000000, -533.000000) " points="512 233 812 833 212 833 "></polygon>
            <g id="Group" sketch:type="MSLayerGroup" transform="translate(405.000000, 293.000000)">
                <ellipse id="Oval-42" stroke="#FFFFFF" stroke-width="20" sketch:type="MSShapeGroup" cx="112.359551" cy="127.640449" rx="112.359551" ry="112.359551"></ellipse>
                <ellipse id="Oval-42-Copy" stroke="#FFFFFF" stroke-width="20" sketch:type="MSShapeGroup" cx="112.359551" cy="127.640449" rx="75.505618" ry="75.505618"></ellipse>
                <ellipse id="Oval-42-Copy-2" fill="#FFFFFF" sketch:type="MSShapeGroup" cx="112.359551" cy="127.640449" rx="35.9550562" ry="35.9550562"></ellipse>
                <path d="M141.24446,100.412463 L265.827555,19.5072554 L274.341058,32.616901 L149.757963,113.522109 L141.24446,100.412463 L141.24446,100.412463 Z" id="Rectangle-30-Copy" fill="#202020" sketch:type="MSShapeGroup"></path>
                <path d="M210.626791,54.7774854 L210.851844,41.871708 L274.493756,0.542167156 L264.381788,28.416085 L293.958787,30.5156866 L230.316875,71.8452275 L218.435323,66.8015713 L114.610543,134.226172 L106.802011,122.202086 L210.626791,54.7774854 L210.626791,54.7774854 Z" id="Rectangle-30" fill="#FFFFFF" sketch:type="MSShapeGroup"></path>
            </g>
        </g>
    </g>
</svg>
