<?xml version="1.0" encoding="UTF-8" standalone="no"?>
<svg width="1024px" height="1024px" viewBox="0 0 1024 1024" version="1.1" xmlns="http://www.w3.org/2000/svg" xmlns:xlink="http://www.w3.org/1999/xlink" xmlns:sketch="http://www.bohemiancoding.com/sketch/ns">
    <!-- Generator: Sketch 3.3.3 (12081) - http://www.bohemiancoding.com/sketch -->
    <title>Quiz</title>
    <desc>Created with Sketch.</desc>
    <defs>
        <radialGradient cx="50%" cy="0%" fx="50%" fy="0%" r="126.36261%" id="radialGradient-1">
            <stop stop-color="#2F2F2F" offset="0%"></stop>
            <stop stop-color="#000000" offset="100%"></stop>
        </radialGradient>
    </defs>
    <g id="Page-1" stroke="none" stroke-width="1" fill="none" fill-rule="evenodd" sketch:type="MSPage">
        <g id="Quiz" sketch:type="MSArtboardGroup">
          <!-- <rect id="Rectangle-4-Copy" fill="url(#radialGradient-1)" sketch:type="MSShapeGroup" x="0" y="0" width="1024" height="1024"></rect> -->

            <g id="Rectangle-18-+-Path-Copy" sketch:type="MSLayerGroup" transform="translate(418.500000, 319.000000)" stroke="#FFFFFF" stroke-width="2">
                <path d="M136.365854,189.011107 L136.365854,209.577251 C136.365854,211.786381 134.574812,213.577236 132.365869,213.577236 L59.1463265,213.577236 C56.9371958,213.577236 55.1463415,211.786194 55.1463415,209.577251 L55.1463415,189.011107 C51.356856,184.067826 48.4495929,178.412638 46.6598657,172.280855 C19.3373185,156.204873 1,126.493892 1,92.5 C1,41.4136606 42.4136606,0 93.5,0 C144.586339,0 186,41.4136606 186,92.5 C186,124.209728 170.044182,152.192774 145.723276,168.85841 C144.099922,176.313084 140.850752,183.16068 136.365854,189.011107 Z" id="Rectangle-18" sketch:type="MSShapeGroup"></path>
                <path d="M130.872663,258.745992 L130.872663,252.764204 L137.342066,253.330203 L138.128594,244.340153 L130.872663,243.705342 L130.872663,237.723553 L137.342066,238.289553 L138.128594,229.299503 L130.872663,228.664691 L130.872663,228.664691 L130.872663,220.581641 C130.872663,218.374389 129.080648,216.585366 126.870086,216.585366 L64.6450865,216.585366 C62.4313556,216.585366 60.6425101,218.374559 60.6425101,220.581641 L60.6425101,222.520349 L54.1731067,221.95435 L53.3865792,230.944399 L60.6425101,231.579211 L60.6425101,237.561 L60.6425101,237.561 L54.1731067,236.995 L53.3865792,245.98505 L60.6425101,246.619861 L60.6425101,252.60165 L54.1731067,252.03565 L53.3865792,261.0257 L60.6425101,261.660512 L60.6425101,269.743562 C60.6425101,271.950814 62.4345246,273.739837 64.6450865,273.739837 L126.870086,273.739837 C129.083817,273.739837 130.872663,271.950644 130.872663,269.743562 L130.872663,267.804854 L137.342066,268.370854 L138.128594,259.380804 L130.872663,258.745992 Z" id="Path-Copy" sketch:type="MSShapeGroup"></path>
                <g id="Brain-Right-+-Brain-left" transform="translate(0.500000, 6.000000)" sketch:type="MSShapeGroup">
                    <g id="Brain-Right" transform="translate(95.000000, 0.000000)">
                        <path d="M55.3743544,65.3571429 C42.6718051,65.3571429 32.3743544,55.4274582 32.3743544,43.1785714 C32.3743544,30.9296847 42.6718051,21 55.3743544,21" id="Path-Copy-10" transform="translate(44.000000, 43.178571) scale(-1, 1) rotate(315.000000) translate(-44.000000, -43.178571) "></path>
                        <path d="M80.3640636,100.535714 C67.6615144,100.535714 57.3640636,90.6060296 57.3640636,78.3571429 C57.3640636,66.1082561 67.6615144,56.1785714 80.3640636,56.1785714" id="Path-Copy-12" transform="translate(68.989709, 78.357143) scale(-1, -1) rotate(303.000000) translate(-68.989709, -78.357143) "></path>
                        <path d="M31.4711633,75.3571429 C18.7686141,75.3571429 8.4711633,65.4274582 8.4711633,53.1785714 C8.4711633,40.9296847 18.7686141,31 31.4711633,31" id="Path-Copy-11" transform="translate(20.096809, 53.178571) rotate(360.000000) translate(-20.096809, -53.178571) "></path>
                        <path d="M51.4711633,113.680139 C38.7686141,113.680139 28.4711633,103.750455 28.4711633,91.5015679 C28.4711633,79.2526811 38.7686141,69.3229965 51.4711633,69.3229965" id="Path-Copy-13" transform="translate(40.096809, 91.501568) rotate(274.000000) translate(-40.096809, -91.501568) "></path>
                        <path d="M35.1899802,165.680139 C22.4874309,165.680139 12.1899802,155.750455 12.1899802,143.501568 C12.1899802,131.252681 22.4874309,121.322996 35.1899802,121.322996" id="Path-Copy-14" transform="translate(23.815626, 143.501568) rotate(38.000000) translate(-23.815626, -143.501568) "></path>
                        <path d="M71.0033098,137.508123 C63.2183088,137.508123 56.9073185,131.422525 56.9073185,123.91556 C56.9073185,116.408594 63.2183088,110.322996 71.0033098,110.322996" id="Path-Copy-16" transform="translate(64.032318, 123.915560) rotate(147.000000) translate(-64.032318, -123.915560) "></path>
                        <path d="M42.6398494,178.336426 C36.493796,178.336426 31.5114352,173.53174 31.5114352,167.604859 C29.5330926,164.926512 30.4080926,154.065672 38.2757685,149.322996" id="Path-Copy-15" transform="translate(36.625433, 163.829711) scale(-1, -1) translate(-36.625433, -163.829711) "></path>
                        <path d="M1.08544477,12 C1.85924699,5.25007431 7.79380543,0 15,0 C22.4771291,0 28.585204,5.65227443 28.9797423,12.767501 L28.9797423,12.767501 C30.8986168,12.2670204 32.9169705,12 35,12 C45.4946745,12 54.347667,18.7778449 57.1081504,28.0416658 C64.322106,28.5863924 70,34.4038057 70,41.5 C70,43.9229267 69.3380627,46.1967712 68.1790565,48.1625534 L68.1790565,48.1625534 C74.876134,49.1718031 80,54.7589004 80,61.5 C80,64.6642774 78.8710223,67.5742852 76.9802983,69.8759076 C81.9017275,74.1140442 85,80.2795527 85,87.1428571 C85,91.8033013 83.5714097,96.1419969 81.113467,99.7739646 L81.113467,99.7739646 C81.6893204,101.523894 82,103.387675 82,105.321429 C82,112.447905 77.7805059,118.624062 71.6191813,121.653582 C71.8689026,122.838653 72,124.065278 72,125.321429 C72,133.607225 66.2960039,140.608361 58.4678864,142.872816 L58.4678864,142.872816 C56.6281192,150.790516 50.1981817,157.035939 42.0130537,158.875354 C42.6520078,160.599485 43,162.456983 43,164.392857 C43,173.081155 35.9905361,180.190774 27.1272003,180.750252 L27.1272003,180.750252 C28.3182976,182.735865 29,185.041166 29,187.5 C29,194.955844 22.7319865,201 15,201 C7.2680135,201 1,194.955844 1,187.5 C1,186.992986 1.02898515,186.492501 1.08544477,186 L1,186 L1,12 L1.08544477,12 L1.08544477,12 Z" id="Oval-26"></path>
                    </g>
                    <g id="Brain-left" transform="translate(47.500000, 100.500000) scale(-1, 1) translate(-47.500000, -100.500000) translate(0.500000, 0.000000)">
                        <path d="M55.3743544,65.3571429 C42.6718051,65.3571429 32.3743544,55.4274582 32.3743544,43.1785714 C32.3743544,30.9296847 42.6718051,21 55.3743544,21" id="Path-Copy-10" transform="translate(44.000000, 43.178571) scale(-1, 1) rotate(315.000000) translate(-44.000000, -43.178571) "></path>
                        <path d="M80.3640636,100.535714 C67.6615144,100.535714 57.3640636,90.6060296 57.3640636,78.3571429 C57.3640636,66.1082561 67.6615144,56.1785714 80.3640636,56.1785714" id="Path-Copy-12" transform="translate(68.989709, 78.357143) scale(-1, -1) rotate(303.000000) translate(-68.989709, -78.357143) "></path>
                        <path d="M31.4711633,75.3571429 C18.7686141,75.3571429 8.4711633,65.4274582 8.4711633,53.1785714 C8.4711633,40.9296847 18.7686141,31 31.4711633,31" id="Path-Copy-11" transform="translate(20.096809, 53.178571) rotate(360.000000) translate(-20.096809, -53.178571) "></path>
                        <path d="M51.4711633,113.680139 C38.7686141,113.680139 28.4711633,103.750455 28.4711633,91.5015679 C28.4711633,79.2526811 38.7686141,69.3229965 51.4711633,69.3229965" id="Path-Copy-13" transform="translate(40.096809, 91.501568) rotate(274.000000) translate(-40.096809, -91.501568) "></path>
                        <path d="M35.1899802,165.680139 C22.4874309,165.680139 12.1899802,155.750455 12.1899802,143.501568 C12.1899802,131.252681 22.4874309,121.322996 35.1899802,121.322996" id="Path-Copy-14" transform="translate(23.815626, 143.501568) rotate(38.000000) translate(-23.815626, -143.501568) "></path>
                        <path d="M71.0033098,137.508123 C63.2183088,137.508123 56.9073185,131.422525 56.9073185,123.91556 C56.9073185,116.408594 63.2183088,110.322996 71.0033098,110.322996" id="Path-Copy-16" transform="translate(64.032318, 123.915560) rotate(147.000000) translate(-64.032318, -123.915560) "></path>
                        <path d="M42.6398494,178.336426 C36.493796,178.336426 31.5114352,173.53174 31.5114352,167.604859 C29.5330926,164.926512 30.4080926,154.065672 38.2757685,149.322996" id="Path-Copy-15" transform="translate(36.625433, 163.829711) scale(-1, -1) translate(-36.625433, -163.829711) "></path>
                        <path d="M1.08544477,12 C1.85924699,5.25007431 7.79380543,0 15,0 C22.4771291,0 28.585204,5.65227443 28.9797423,12.767501 L28.9797423,12.767501 C30.8986168,12.2670204 32.9169705,12 35,12 C45.4946745,12 54.347667,18.7778449 57.1081504,28.0416658 C64.322106,28.5863924 70,34.4038057 70,41.5 C70,43.9229267 69.3380627,46.1967712 68.1790565,48.1625534 L68.1790565,48.1625534 C74.876134,49.1718031 80,54.7589004 80,61.5 C80,64.6642774 78.8710223,67.5742852 76.9802983,69.8759076 C81.9017275,74.1140442 85,80.2795527 85,87.1428571 C85,91.8033013 83.5714097,96.1419969 81.113467,99.7739646 L81.113467,99.7739646 C81.6893204,101.523894 82,103.387675 82,105.321429 C82,112.447905 77.7805059,118.624062 71.6191813,121.653582 C71.8689026,122.838653 72,124.065278 72,125.321429 C72,133.607225 66.2960039,140.608361 58.4678864,142.872816 L58.4678864,142.872816 C56.6281192,150.790516 50.1981817,157.035939 42.0130537,158.875354 C42.6520078,160.599485 43,162.456983 43,164.392857 C43,173.081155 35.9905361,180.190774 27.1272003,180.750252 L27.1272003,180.750252 C28.3182976,182.735865 29,185.041166 29,187.5 C29,194.955844 22.7319865,201 15,201 C7.2680135,201 1,194.955844 1,187.5 C1,186.992986 1.02898515,186.492501 1.08544477,186 L1,186 L1,12 L1.08544477,12 L1.08544477,12 Z" id="Oval-26"></path>
                    </g>
                </g>
            </g>
            <polygon id="Triangle-14"  stroke="#FFFFFF" stroke-width="18" sketch:type="MSShapeGroup" transform="translate(512.000000, 513.000000) scale(1, -1) translate(-512.000000, -513.000000) " points="512 263 762 763 262 763 "></polygon>
            <polygon id="Triangle-14-Copy" stroke="#FFFFFF" stroke-width="4" sketch:type="MSShapeGroup" transform="translate(512.000000, 533.000000) scale(1, -1) translate(-512.000000, -533.000000) " points="512 233 812 833 212 833 "></polygon>
            <g id="Group" sketch:type="MSLayerGroup" transform="translate(362.000000, 276.000000)" stroke="#FFFFFF" stroke-width="2" stroke-linecap="square">
                <path d="M50.5,114.5 L6.5,88.5" id="Line" sketch:type="MSShapeGroup"></path>
                <path d="M57.5,98.5 L0.5,53.5" id="Line" sketch:type="MSShapeGroup"></path>
                <path d="M65.5,81.5 L35.5,54.5" id="Line" sketch:type="MSShapeGroup"></path>
                <path d="M75.5,70.5 L35.5,25.5" id="Line" sketch:type="MSShapeGroup"></path>
                <path d="M84.5,59.5 L70.5,37.5" id="Line" sketch:type="MSShapeGroup"></path>
                <path d="M97.5,51.5 L75.5,9.5" id="Line" sketch:type="MSShapeGroup"></path>
                <path d="M110.5,43.5 L101.5,23.5" id="Line" sketch:type="MSShapeGroup"></path>
                <path d="M122.5,39.5 L110.5,2.5" id="Line" sketch:type="MSShapeGroup"></path>
                <path d="M134.5,38.5 L129.5,15.5" id="Line" sketch:type="MSShapeGroup"></path>
                <path d="M149,39.5 L149,0.5" id="Line" sketch:type="MSShapeGroup"></path>
                <path d="M51.5,129.5 L25.5,116.5" id="Line" sketch:type="MSShapeGroup"></path>
            </g>
            <g id="Group-Copy" sketch:type="MSLayerGroup" transform="translate(586.000000, 341.000000) scale(-1, 1) translate(-586.000000, -341.000000) translate(511.000000, 276.000000)" stroke="#FFFFFF" stroke-width="2" stroke-linecap="square">
                <path d="M50.5,114.5 L6.5,88.5" id="Line" sketch:type="MSShapeGroup"></path>
                <path d="M57.5,98.5 L0.5,53.5" id="Line" sketch:type="MSShapeGroup"></path>
                <path d="M65.5,81.5 L35.5,54.5" id="Line" sketch:type="MSShapeGroup"></path>
                <path d="M75.5,70.5 L35.5,25.5" id="Line" sketch:type="MSShapeGroup"></path>
                <path d="M84.5,59.5 L70.5,37.5" id="Line" sketch:type="MSShapeGroup"></path>
                <path d="M97.5,51.5 L75.5,9.5" id="Line" sketch:type="MSShapeGroup"></path>
                <path d="M110.5,43.5 L101.5,23.5" id="Line" sketch:type="MSShapeGroup"></path>
                <path d="M122.5,39.5 L110.5,2.5" id="Line" sketch:type="MSShapeGroup"></path>
                <path d="M134.5,38.5 L129.5,15.5" id="Line" sketch:type="MSShapeGroup"></path>
                <path d="M149,39.5 L149,0.5" id="Line" sketch:type="MSShapeGroup"></path>
                <path d="M51.5,129.5 L25.5,116.5" id="Line" sketch:type="MSShapeGroup"></path>
            </g>
        </g>
    </g>
</svg>
