<?xml version="1.0" encoding="UTF-8" standalone="no"?>
<svg width="1024px" height="1024px" viewBox="0 0 1024 1024" version="1.1" xmlns="http://www.w3.org/2000/svg" xmlns:xlink="http://www.w3.org/1999/xlink" xmlns:sketch="http://www.bohemiancoding.com/sketch/ns">
    <!-- Generator: Sketch 3.3.3 (12081) - http://www.bohemiancoding.com/sketch -->
    <title>Treasure Hunt</title>
    <desc>Created with Sketch.</desc>
    <defs>
        <radialGradient cx="50%" cy="0%" fx="50%" fy="0%" r="126.36261%" id="radialGradient-1">
            <stop stop-color="#2F2F2F" offset="0%"></stop>
            <stop stop-color="#000000" offset="100%"></stop>
        </radialGradient>
    </defs>
    <g id="Page-1" stroke="none" stroke-width="1" fill="none" fill-rule="evenodd" sketch:type="MSPage">
        <g id="Treasure-Hunt" sketch:type="MSArtboardGroup">
          <!-- <rect id="Rectangle-4-Copy" fill="url(#radialGradient-1)" sketch:type="MSShapeGroup" x="0" y="0" width="1024" height="1024"></rect> -->

            <g id="start+end" sketch:type="MSLayerGroup" transform="translate(314.000000, 285.000000)">
                <path d="M8.43278692,4.2483678 L16.8275347,0.456798881 L39.5623465,0.456798881 L47.0238037,4.2483678 L55.7434387,12.6479828 L28.0294549,51.5432011 L0.0234375,12.6479828 L8.43278692,4.2483678 Z" id="Rectangle-7" stroke="#FFFFFF" stroke-width="3" sketch:type="MSShapeGroup"></path>
                <path d="M16.1125126,9.3355446 L21.1927513,7.04100573 L34.951148,7.04100573 L39.4665884,9.3355446 L44.7434387,14.4187287 L27.9718029,37.9568978 L11.0234375,14.4187287 L16.1125126,9.3355446 Z" id="Rectangle-7-Copy" fill="#D8D8D8" sketch:type="MSShapeGroup"></path>
                <circle id="Start" stroke="#FFFFFF" stroke-width="3" sketch:type="MSShapeGroup" cx="200" cy="353" r="15"></circle>
            </g>
            <polygon id="Triangle-14"  stroke="#FFFFFF" stroke-width="18" sketch:type="MSShapeGroup" transform="translate(512.000000, 513.000000) scale(1, -1) translate(-512.000000, -513.000000) " points="512 263 762 763 262 763 "></polygon>
            <polygon id="Triangle-14-Copy" stroke="#FFFFFF" stroke-width="4" sketch:type="MSShapeGroup" transform="translate(512.000000, 533.000000) scale(1, -1) translate(-512.000000, -533.000000) " points="512 233 812 833 212 833 "></polygon>
            <g id="points" sketch:type="MSLayerGroup" transform="translate(412.000000, 312.000000)" stroke="#FFFFFF">
                <g id="point" transform="translate(89.000000, 196.000000)" sketch:type="MSShapeGroup">
                    <circle id="Oval-1" fill="#D8D8D8" cx="17.5" cy="17.5" r="12.5"></circle>
                    <circle id="Oval-1-Copy" stroke-width="3" cx="17.5" cy="17.5" r="17.5"></circle>
                </g>
                <g id="point-copy" transform="translate(163.000000, 112.000000)" sketch:type="MSShapeGroup">
                    <circle id="Oval-1" fill="#D8D8D8" cx="17.5" cy="17.5" r="12.5"></circle>
                    <circle id="Oval-1-Copy" stroke-width="3" cx="17.5" cy="17.5" r="17.5"></circle>
                </g>
                <g id="point-copy-2" transform="translate(54.000000, 67.000000)" sketch:type="MSShapeGroup">
                    <circle id="Oval-1" fill="#D8D8D8" cx="17.5" cy="17.5" r="12.5"></circle>
                    <circle id="Oval-1-Copy" stroke-width="3" cx="17.5" cy="17.5" r="17.5"></circle>
                </g>
                <g id="point-copy-3" transform="translate(12.000000, 155.000000)" sketch:type="MSShapeGroup">
                    <circle id="Oval-1" fill="#D8D8D8" cx="17.5" cy="17.5" r="12.5"></circle>
                    <circle id="Oval-1-Copy" stroke-width="3" cx="17.5" cy="17.5" r="17.5"></circle>
                </g>
                <g id="point-copy-4" sketch:type="MSShapeGroup">
                    <circle id="Oval-1" fill="#D8D8D8" cx="17.5" cy="17.5" r="12.5"></circle>
                    <circle id="Oval-1-Copy" stroke-width="3" cx="17.5" cy="17.5" r="17.5"></circle>
                </g>
                <g id="point-copy-5" transform="translate(134.000000, 5.000000)" sketch:type="MSShapeGroup">
                    <circle id="Oval-1" fill="#D8D8D8" cx="17.5" cy="17.5" r="12.5"></circle>
                    <circle id="Oval-1-Copy" stroke-width="3" cx="17.5" cy="17.5" r="17.5"></circle>
                </g>
            </g>
            <g id="paths" sketch:type="MSLayerGroup" transform="translate(367.000000, 295.000000)" fill="#D8D8D8">
                <path d="M116.846303,289.392 L121.466303,289.392 L121.466303,284.856 L116.846303,284.856 L116.846303,289.392 Z M129.152303,289.392 L133.772303,289.392 L133.772303,284.856 L129.152303,284.856 L129.152303,289.392 Z M141.290303,289.392 L145.910303,289.392 L145.910303,284.856 L141.290303,284.856 L141.290303,289.392 Z M153.176303,289.392 L157.796303,289.392 L157.796303,284.856 L153.176303,284.856 L153.176303,289.392 Z M165.482303,289.392 L170.102303,289.392 L170.102303,284.856 L165.482303,284.856 L165.482303,289.392 Z M177.620303,289.392 L182.240303,289.392 L182.240303,284.856 L177.620303,284.856 L177.620303,289.392 Z" id="……" sketch:type="MSShapeGroup" transform="translate(149.543303, 287.124000) rotate(93.000000) translate(-149.543303, -287.124000) "></path>
                <path d="M93.403262,211.223847 L98.023262,211.223847 L98.023262,206.687847 L93.403262,206.687847 L93.403262,211.223847 Z M105.289262,211.223847 L109.909262,211.223847 L109.909262,206.687847 L105.289262,206.687847 L105.289262,211.223847 Z M117.595262,211.223847 L122.215262,211.223847 L122.215262,206.687847 L117.595262,206.687847 L117.595262,211.223847 Z M129.733262,211.223847 L134.353262,211.223847 L134.353262,206.687847 L129.733262,206.687847 L129.733262,211.223847 Z" id="……-copy-2" sketch:type="MSShapeGroup" transform="translate(113.878262, 208.955847) rotate(25.000000) translate(-113.878262, -208.955847) "></path>
                <path d="M68.6819468,71.3293417 L73.3019468,71.3293417 L73.3019468,66.7933417 L68.6819468,66.7933417 L68.6819468,71.3293417 Z M80.5679468,71.3293417 L85.1879468,71.3293417 L85.1879468,66.7933417 L80.5679468,66.7933417 L80.5679468,71.3293417 Z M92.8739468,71.3293417 L97.4939468,71.3293417 L97.4939468,66.7933417 L92.8739468,66.7933417 L92.8739468,71.3293417 Z M105.011947,71.3293417 L109.631947,71.3293417 L109.631947,66.7933417 L105.011947,66.7933417 L105.011947,71.3293417 Z" id="……-copy-5" sketch:type="MSShapeGroup" transform="translate(89.156947, 69.061342) rotate(50.000000) translate(-89.156947, -69.061342) "></path>
                <path d="M232.394754,115.87028 L237.014754,115.87028 L237.014754,111.33428 L232.394754,111.33428 L232.394754,115.87028 Z M244.280754,115.87028 L248.900754,115.87028 L248.900754,111.33428 L244.280754,111.33428 L244.280754,115.87028 Z M256.586754,115.87028 L261.206754,115.87028 L261.206754,111.33428 L256.586754,111.33428 L256.586754,115.87028 Z M268.724754,115.87028 L273.344754,115.87028 L273.344754,111.33428 L268.724754,111.33428 L268.724754,115.87028 Z" id="……-copy-7" sketch:type="MSShapeGroup" transform="translate(252.869754, 113.602280) rotate(134.000000) translate(-252.869754, -113.602280) "></path>
                <path d="M33.3354441,152.272129 L37.9554441,152.272129 L37.9554441,147.736129 L33.3354441,147.736129 L33.3354441,152.272129 Z M45.2214441,152.272129 L49.8414441,152.272129 L49.8414441,147.736129 L45.2214441,147.736129 L45.2214441,152.272129 Z M57.5274441,152.272129 L62.1474441,152.272129 L62.1474441,147.736129 L57.5274441,147.736129 L57.5274441,152.272129 Z M69.6654441,152.272129 L74.2854441,152.272129 L74.2854441,147.736129 L69.6654441,147.736129 L69.6654441,152.272129 Z" id="……-copy-8" sketch:type="MSShapeGroup" transform="translate(53.810444, 150.004129) rotate(251.000000) translate(-53.810444, -150.004129) "></path>
                <path d="M0.575417468,23.0918164 L5.19541747,23.0918164 L5.19541747,18.5558164 L0.575417468,18.5558164 L0.575417468,23.0918164 Z M12.4614175,23.0918164 L17.0814175,23.0918164 L17.0814175,18.5558164 L12.4614175,18.5558164 L12.4614175,23.0918164 Z M24.7674175,23.0918164 L29.3874175,23.0918164 L29.3874175,18.5558164 L24.7674175,18.5558164 L24.7674175,23.0918164 Z M36.9054175,23.0918164 L41.5254175,23.0918164 L41.5254175,18.5558164 L36.9054175,18.5558164 L36.9054175,23.0918164 Z" id="……-copy-6" sketch:type="MSShapeGroup" transform="translate(21.050417, 20.823816) rotate(16.000000) translate(-21.050417, -20.823816) "></path>
                <path d="M155.365834,190.493206 L159.985834,190.493206 L159.985834,185.957206 L155.365834,185.957206 L155.365834,190.493206 Z M167.671834,190.493206 L172.291834,190.493206 L172.291834,185.957206 L167.671834,185.957206 L167.671834,190.493206 Z M179.809834,190.493206 L184.429834,190.493206 L184.429834,185.957206 L179.809834,185.957206 L179.809834,190.493206 Z M191.695834,190.493206 L196.315834,190.493206 L196.315834,185.957206 L191.695834,185.957206 L191.695834,190.493206 Z M204.001834,190.493206 L208.621834,190.493206 L208.621834,185.957206 L204.001834,185.957206 L204.001834,190.493206 Z M216.139834,190.493206 L220.759834,190.493206 L220.759834,185.957206 L216.139834,185.957206 L216.139834,190.493206 Z" id="……-copy" sketch:type="MSShapeGroup" transform="translate(188.062834, 188.225206) rotate(311.000000) translate(-188.062834, -188.225206) "></path>
                <path d="M128.462076,68.4321348 L133.082076,68.4321348 L133.082076,63.8961348 L128.462076,63.8961348 L128.462076,68.4321348 Z M140.768076,68.4321348 L145.388076,68.4321348 L145.388076,63.8961348 L140.768076,63.8961348 L140.768076,68.4321348 Z M152.906076,68.4321348 L157.526076,68.4321348 L157.526076,63.8961348 L152.906076,63.8961348 L152.906076,68.4321348 Z M164.792076,68.4321348 L169.412076,68.4321348 L169.412076,63.8961348 L164.792076,63.8961348 L164.792076,68.4321348 Z M177.098076,68.4321348 L181.718076,68.4321348 L181.718076,63.8961348 L177.098076,63.8961348 L177.098076,68.4321348 Z" id="……-copy-4" sketch:type="MSShapeGroup" transform="translate(155.090076, 66.164135) rotate(324.000000) translate(-155.090076, -66.164135) "></path>
                <path d="M81.2267527,14.7669518 L85.8467527,14.7669518 L85.8467527,10.2309518 L81.2267527,10.2309518 L81.2267527,14.7669518 Z M93.5327527,14.7669518 L98.1527527,14.7669518 L98.1527527,10.2309518 L93.5327527,10.2309518 L93.5327527,14.7669518 Z M105.670753,14.7669518 L110.290753,14.7669518 L110.290753,10.2309518 L105.670753,10.2309518 L105.670753,14.7669518 Z M117.556753,14.7669518 L122.176753,14.7669518 L122.176753,10.2309518 L117.556753,10.2309518 L117.556753,14.7669518 Z M129.862753,14.7669518 L134.482753,14.7669518 L134.482753,10.2309518 L129.862753,10.2309518 L129.862753,14.7669518 Z" id="……-copy-9" sketch:type="MSShapeGroup" transform="translate(107.854753, 12.498952) rotate(338.000000) translate(-107.854753, -12.498952) "></path>
                <path d="M67.7351118,146.993588 L72.3551118,146.993588 L72.3551118,142.457588 L67.7351118,142.457588 L67.7351118,146.993588 Z M80.0411118,146.993588 L84.6611118,146.993588 L84.6611118,142.457588 L80.0411118,142.457588 L80.0411118,146.993588 Z M92.1791118,146.993588 L96.7991118,146.993588 L96.7991118,142.457588 L92.1791118,142.457588 L92.1791118,146.993588 Z M104.065112,146.993588 L108.685112,146.993588 L108.685112,142.457588 L104.065112,142.457588 L104.065112,146.993588 Z M116.371112,146.993588 L120.991112,146.993588 L120.991112,142.457588 L116.371112,142.457588 L116.371112,146.993588 Z" id="……-copy-3" sketch:type="MSShapeGroup" transform="translate(94.363112, 144.725588) rotate(295.000000) translate(-94.363112, -144.725588) "></path>
            </g>
            <g id="dead-ends" sketch:type="MSLayerGroup" transform="translate(397.000000, 281.000000)" fill="#D8D8D8">
                <path d="M268.050518,105.332826 L260.995831,112.387514 L253.387432,104.779115 L245.799542,112.387514 L238.724346,105.332826 L246.332745,97.7244277 L238.724346,90.1775527 L245.840557,83.0613417 L253.387432,90.6287245 L260.954815,83.0613417 L268.050518,90.1775527 L260.44212,97.7244277 L268.050518,105.332826 Z" id="✖︎" sketch:type="MSShapeGroup"></path>
                <path d="M134.899991,22.9453125 L127.845303,30 L120.236905,22.3916016 L112.649014,30 L105.573819,22.9453125 L113.182217,15.3369141 L105.573819,7.79003906 L112.69003,0.673828125 L120.236905,8.24121094 L127.804287,0.673828125 L134.899991,7.79003906 L127.291592,15.3369141 L134.899991,22.9453125 Z" id="✖︎-copy-2" sketch:type="MSShapeGroup"></path>
                <path d="M29.6630859,136.85156 L22.6083984,143.906248 L15,136.297849 L7.41210938,143.906248 L0.336914062,136.85156 L7.9453125,129.243162 L0.336914062,121.696287 L7.453125,114.580076 L15,122.147459 L22.5673828,114.580076 L29.6630859,121.696287 L22.0546875,129.243162 L29.6630859,136.85156 Z" id="✖︎-copy" sketch:type="MSShapeGroup"></path>
            </g>
        </g>
    </g>
</svg>
